#!OML:ASF H:\Terrain\Patient Classification 1\PLAYGROUND\JustinFriday\JustinFriday.ASF
:FULLY-SPECIFIED
:DEGREES
2529
root -12.0482 17.5517 13.8952 180.298 -2.7027 -177.493
lowerback 11.3558 3.4915 2.28869
upperback 2.11948 4.76229 1.90416
thorax -4.10726 2.23249 0.010086
lowerneck -9.44581 1.18984 -4.65364
upperneck 17.8737 2.70813 -5.77331
head 7.07226 0.164485 -0.898352
rclavicle 1.80894e-014 2.98177e-014
rhumerus -22.1612 1.68495 -65.6812
rradius 55.9173
rwrist -15.9595
rhand -19.6929 -24.379
rfingers 7.12502
rthumb 6.63627 305.745
lclavicle 1.80894e-014 2.98177e-014
lhumerus -40.9462 25.0982 60.4236
lradius 30.9405
lwrist 9.23339
lhand -26.2632 -0.508492
lfingers 7.12502
lthumb 0.29152 29.4711
rfemur -8.17931 -19.7425 11.1294
rtibia 47.8265
rfoot -41.7572 -29.5507
rtoes 51.8
lfemur -10.4903 7.30463 -19.9989
ltibia 29.7003
lfoot -18.5087 4.28677
ltoes 4.03755
2530
root -12.1093 17.5561 13.8529 180.094 -2.9567 -177.111
lowerback 11.4947 3.69376 2.90107
upperback 1.89893 5.1278 1.8728
thorax -4.35281 2.40381 -0.431356
lowerneck -8.16473 0.958219 -4.34679
upperneck 17.7101 2.19119 -5.70667
head 6.78659 -0.0380916 -0.972891
rclavicle -8.0806e-014 2.18663e-014
rhumerus -22.7751 1.9484 -65.8767
rradius 56.6709
rwrist -16.066
rhand -19.3988 -24.2718
rfingers 7.12502
rthumb 6.92024 305.861
lclavicle -8.0806e-014 2.18663e-014
lhumerus -41.6394 24.5267 60.4132
lradius 30.7811
lwrist 9.22228
lhand -25.9515 -0.406898
lfingers 7.12502
lthumb 0.592636 29.572
rfemur -8.30944 -18.8015 11.2189
rtibia 48.6212
rfoot -36.4447 -30.8285
rtoes 51.0251
lfemur -10.0881 7.09206 -19.8297
ltibia 29.5327
lfoot -18.2111 4.70694
ltoes 2.17633
2531
root -12.1424 17.5729 13.8371 180.555 -3.78625 -176.919
lowerback 11.3416 3.72646 2.90954
upperback 1.62425 5.20114 1.92617
thorax -4.55922 2.44431 -0.392496
lowerneck -7.70092 0.774082 -4.2625
upperneck 17.6333 1.88343 -5.74542
head 6.67747 -0.175717 -1.02383
rclavicle -5.69518e-014 -4.37326e-014
rhumerus -22.8415 2.2621 -65.9935
rradius 57.3308
rwrist -16.199
rhand -19.7982 -23.7271
rfingers 7.12502
rthumb 6.53463 306.394
lclavicle -5.69518e-014 -4.37326e-014
lhumerus -41.9162 24.6882 60.5077
lradius 30.404
lwrist 9.2285
lhand -25.7837 -0.276799
lfingers 7.12502
lthumb 0.75462 29.7016
rfemur -9.19495 -18.0979 11.6246
rtibia 49.4162
rfoot -31.3824 -31.3437
rtoes 49.1091
lfemur -10.6603 6.93613 -19.7623
ltibia 29.4954
lfoot -17.7264 4.36107
ltoes 0.823307
2532
root -12.1701 17.583 13.8157 180.905 -4.7616 -176.553
lowerback 11.2549 3.68759 3.10636
upperback 1.42553 5.19273 2.02697
thorax -4.71203 2.43749 -0.397695
lowerneck -7.76724 0.636767 -4.22326
upperneck 17.9651 1.69157 -5.70054
head 6.79369 -0.279993 -1.03469
rclavicle -9.64106e-015 1.90833e-014
rhumerus -22.8352 2.5011 -66.1277
rradius 57.9764
rwrist -16.3342
rhand -20.0917 -22.5968
rfingers 7.12502
rthumb 6.25126 307.515
lclavicle -9.64106e-015 1.90833e-014
lhumerus -42.1077 24.4783 60.86
lradius 30.0565
lwrist 9.29759
lhand -26.8952 0.552047
lfingers 7.12502
lthumb -0.318827 30.5316
rfemur -9.88619 -17.4638 12.228
rtibia 50.1655
rfoot -27.107 -30.6281
rtoes 46.3101
lfemur -11.1601 6.4691 -19.4794
ltibia 29.5585
lfoot -17.7533 3.80123
ltoes 1.96483
2533
root -12.1841 17.5986 13.8115 181.577 -5.60279 -176.282
lowerback 11.0464 3.70316 2.9769
upperback 1.08586 5.22995 2.13716
thorax -4.97494 2.4617 -0.217137
lowerneck -7.63715 0.501474 -4.27007
upperneck 18.1921 1.47011 -5.50806
head 6.83935 -0.383243 -0.984989
rclavicle 4.1546e-014 -1.70955e-014
rhumerus -23.035 2.78784 -66.2642
rradius 58.767
rwrist -16.2611
rhand -19.4222 -22.5011
rfingers 7.12502
rthumb 6.89758 307.631
lclavicle 4.1546e-014 -1.70955e-014
lhumerus -42.5075 24.3463 61.091
lradius 29.7304
lwrist 8.87666
lhand -27.3395 0.933729
lfingers 7.12502
lthumb -0.74797 30.9122
rfemur -11.088 -16.642 12.9372
rtibia 50.9102
rfoot -23.3732 -29.329
rtoes 43.2909
lfemur -12.0795 6.42314 -19.2759
ltibia 29.6583
lfoot -17.717 2.91096
ltoes 3.32436
2534
root -12.2476 17.5858 13.7406 181.326 -4.07185 -176.216
lowerback 10.6752 4.39226 2.98812
upperback 1.44697 6.09767 2.14141
thorax -4.37122 2.89618 -0.296822
lowerneck -7.4105 0.458488 -4.34481
upperneck 17.9486 1.38895 -5.39728
head 6.71877 -0.39826 -0.939879
rclavicle 5.56597e-015 -1.23246e-014
rhumerus -22.9199 3.35767 -66.3822
rradius 59.3687
rwrist -15.9609
rhand -18.2793 -22.2337
rfingers 7.12502
rthumb 8.00078 307.938
lclavicle 5.56597e-015 -1.23246e-014
lhumerus -42.7824 25.1233 61.0515
lradius 29.1669
lwrist 7.97474
lhand -24.376 -0.724764
lfingers 7.12502
lthumb 2.11418 29.2445
rfemur -11.5846 -14.1152 12.7292
rtibia 51.6463
rfoot -19.0766 -27.3812
rtoes 38.9751
lfemur -11.3935 6.75181 -19.5043
ltibia 29.7571
lfoot -18.324 4.01032
ltoes 3.90129
2535
root -12.2842 17.581 13.7123 181.212 -5.16588 -176.158
lowerback 10.8159 4.20942 3.10158
upperback 1.56497 5.85986 2.19593
thorax -4.32463 2.77351 -0.275771
lowerneck -7.34409 0.459422 -4.22799
upperneck 17.7752 1.39131 -5.49286
head 6.65232 -0.383563 -0.987259
rclavicle -4.57205e-015 -4.37326e-015
rhumerus -22.6332 4.07659 -66.4943
rradius 59.7393
rwrist -15.8877
rhand -18.013 -21.3918
rfingers 7.12502
rthumb 8.2578 308.79
lclavicle -4.57205e-015 -4.37326e-015
lhumerus -42.9168 26.0551 60.9953
lradius 28.5002
lwrist 6.74389
lhand -25.2443 0.103172
lfingers 7.12502
lthumb 1.27558 30.0791
rfemur -11.8228 -13.5023 12.8297
rtibia 52.3841
rfoot -16.4853 -25.3929
rtoes 35.2675
lfemur -11.3356 6.56217 -19.5128
ltibia 29.8059
lfoot -18.2453 3.23325
ltoes 3.77232
2536
root -12.319 17.5727 13.6762 181.016 -6.20371 -176.417
lowerback 10.9889 4.12781 2.83495
upperback 1.68297 5.71762 2.1637
thorax -4.32285 2.70616 -0.150972
lowerneck -7.7654 0.155572 -4.72281
upperneck 18.293 0.999685 -4.92263
head 6.88684 -0.58177 -0.759165
rclavicle -2.85256e-014 -2.50469e-014
rhumerus -22.6034 4.43225 -66.6318
rradius 60.3122
rwrist -15.9459
rhand -17.8767 -21.5597
rfingers 7.12502
rthumb 8.38937 308.627
lclavicle -2.85256e-014 -2.50469e-014
lhumerus -43.0018 26.2414 61.2987
lradius 28.0911
lwrist 6.21229
lhand -25.911 0.784088
lfingers 7.12502
lthumb 0.631676 30.7629
rfemur -11.8715 -12.9559 12.5279
rtibia 53.1051
rfoot -14.6395 -22.973
rtoes 32.3554
lfemur -11.0891 6.57047 -19.8431
ltibia 29.8205
lfoot -18.2415 2.29996
ltoes 3.58071
2537
root -12.3501 17.5683 13.6354 180.841 -7.1364 -176.676
lowerback 11.0417 4.07697 2.48592
upperback 1.81374 5.60158 2.10122
thorax -4.2447 2.65517 -0.00558061
lowerneck -7.7521 -0.0110468 -4.55282
upperneck 18.5496 0.730305 -4.81086
head 6.96515 -0.699887 -0.775554
rclavicle -2.70347e-014 1.19271e-014
rhumerus -22.6804 4.54089 -66.8776
rradius 60.9507
rwrist -15.7511
rhand -17.6844 -22.5707
rfingers 7.12502
rthumb 8.57494 307.623
lclavicle -2.70347e-014 1.19271e-014
lhumerus -43.0765 26.392 61.4638
lradius 27.6403
lwrist 5.96207
lhand -26.0528 0.649921
lfingers 7.12502
lthumb 0.494709 30.6291
rfemur -11.9462 -12.209 12.2912
rtibia 53.7511
rfoot -13.2265 -20.8253
rtoes 30.4751
lfemur -10.8106 6.41275 -20.1638
ltibia 29.8663
lfoot -18.378 1.45222
ltoes 3.83729
2538
root -12.3753 17.569 13.6007 180.816 -8.08717 -176.586
lowerback 11.0323 3.9804 2.47169
upperback 1.80654 5.47342 2.07738
thorax -4.24766 2.59326 -0.00411132
lowerneck -7.77054 -0.181891 -4.55661
upperneck 18.8685 0.45462 -4.55228
head 7.06937 -0.823594 -0.717472
rclavicle 8.42847e-014 2.34566e-014
rhumerus -22.7383 4.85857 -67.2295
rradius 61.3125
rwrist -15.5596
rhand -17.9206 -23.2712
rfingers 7.12502
rthumb 8.34695 306.914
lclavicle 8.42847e-014 2.34566e-014
lhumerus -43.2961 26.81 61.2517
lradius 27.0437
lwrist 5.03942
lhand -25.4405 0.14328
lfingers 7.12502
lthumb 1.08617 30.1203
rfemur -12.3596 -11.3829 12.6028
rtibia 54.2968
rfoot -12.5911 -18.7968
rtoes 29.5884
lfemur -10.7759 6.18649 -20.0763
ltibia 29.9537
lfoot -18.5101 0.45356
ltoes 4.8747
2539
root -12.3974 17.5623 13.5685 180.886 -9.03251 -176.435
lowerback 10.972 3.86706 2.52084
upperback 1.72316 5.33679 2.08285
thorax -4.29943 2.52706 -0.00575823
lowerneck -7.30152 -0.277601 -4.33279
upperneck 18.6927 0.250389 -4.55838
head 6.92697 -0.893825 -0.768377
rclavicle 8.94531e-016 -3.57812e-014
rhumerus -22.8331 5.27728 -67.599
rradius 61.5636
rwrist -15.051
rhand -17.7287 -23.2902
rfingers 7.12502
rthumb 8.53213 306.902
lclavicle 8.94531e-016 -3.57812e-014
lhumerus -43.5212 27.002 61.2604
lradius 26.53
lwrist 4.32257
lhand -25.0098 0.0992127
lfingers 7.12502
lthumb 1.50214 30.0737
rfemur -12.882 -10.651 13.0264
rtibia 54.7419
rfoot -12.5093 -16.639
rtoes 24.0025
lfemur -10.9117 6.17232 -19.9148
ltibia 30.0603
lfoot -18.5593 -0.671753
ltoes 5.5982
